<?xml version="1.0" encoding="UTF-8"?>
<svg id="Capa_2" xmlns="http://www.w3.org/2000/svg" xmlns:xlink="http://www.w3.org/1999/xlink" viewBox="0 0 682.79 153.42">
  <defs>
    <style>
      .cls-1 {
        fill: #203462;
      }

      .cls-2 {
        fill: url(#Degradado_sin_nombre_30-2);
      }

      .cls-3 {
        fill: #00a398;
      }

      .cls-4 {
        fill: url(#Degradado_sin_nombre_50);
      }

      .cls-5 {
        fill: #203463;
      }

      .cls-6 {
        fill: url(#Degradado_sin_nombre_30);
      }
    </style>
    <linearGradient id="Degradado_sin_nombre_30" data-name="Degradado sin nombre 30" x1="54.93" y1="70.82" x2="54.93" y2="39.46" gradientUnits="userSpaceOnUse">
      <stop offset="0" stop-color="#00a398"/>
      <stop offset=".05" stop-color="#068e8e"/>
      <stop offset=".13" stop-color="#0e7280"/>
      <stop offset=".21" stop-color="#145b75"/>
      <stop offset=".32" stop-color="#19496d"/>
      <stop offset=".44" stop-color="#1d3d67"/>
      <stop offset=".6" stop-color="#1f3663"/>
      <stop offset=".99" stop-color="#203463"/>
    </linearGradient>
    <linearGradient id="Degradado_sin_nombre_30-2" data-name="Degradado sin nombre 30" x1="82.03" y1="130.29" x2="82.03" y2="34.49" xlink:href="#Degradado_sin_nombre_30"/>
    <linearGradient id="Degradado_sin_nombre_50" data-name="Degradado sin nombre 50" x1="38.59" y1="38.95" x2="119.77" y2="120.13" gradientUnits="userSpaceOnUse">
      <stop offset="0" stop-color="#203463"/>
      <stop offset=".15" stop-color="#1d3b66"/>
      <stop offset=".38" stop-color="#184f6f"/>
      <stop offset=".65" stop-color="#0e6f7f"/>
      <stop offset=".96" stop-color="#019c94"/>
      <stop offset="1" stop-color="#00a398"/>
    </linearGradient>
  </defs>
  <g id="Capa_1-2" data-name="Capa_1">
    <g>
      <g>
        <rect class="cls-3" y="87.21" width="23.41" height="23.41" rx="1.31" ry="1.31"/>
        <path class="cls-5" d="M110.77.61v22.18c0,.34-.28.61-.61.61h-22.18c-.34,0-.61-.28-.61-.61V.61c0-.34.28-.61.61-.61h22.18c.34,0,.61.28.61.61Z"/>
        <g>
          <g>
            <path class="cls-6" d="M70.62,40.2v29.88c0,.41-.33.74-.74.74h-29.88c-.41,0-.74-.33-.74-.74v-29.88c0-.41.33-.74.74-.74h29.88c.41,0,.74.33.74.74Z"/>
            <path class="cls-2" d="M129.94,36.96c0-1.37-1.11-2.48-2.48-2.48h-42.95c-1.37,0-2.48,1.11-2.48,2.48v36.13h15.26c1.31,0,2.37,1.06,2.37,2.37v22.35c0,1.31-1.06,2.37-2.37,2.37h-22.35c-1.31,0-2.37-1.06-2.37-2.37v-15.43h-35.97c-1.37,0-2.48,1.11-2.48,2.48v42.95c0,1.37,1.11,2.48,2.48,2.48h70.81l22.52-22.52V36.96Z"/>
          </g>
          <g>
            <path class="cls-4" d="M70.62,40.2v29.88c0,.41-.33.74-.74.74h-29.88c-.41,0-.74-.33-.74-.74v-29.88c0-.41.33-.74.74-.74h29.88c.41,0,.74.33.74.74Z"/>
            <path class="cls-4" d="M129.94,36.96c0-1.37-1.11-2.48-2.48-2.48h-42.95c-1.37,0-2.48,1.11-2.48,2.48v36.13h15.26c1.31,0,2.37,1.06,2.37,2.37v22.35c0,1.31-1.06,2.37-2.37,2.37h-22.35c-1.31,0-2.37-1.06-2.37-2.37v-15.43h-35.97c-1.37,0-2.48,1.11-2.48,2.48v42.95c0,1.37,1.11,2.48,2.48,2.48h70.81l22.52-22.52V36.96Z"/>
          </g>
        </g>
      </g>
      <g>
        <path class="cls-1" d="M192.68,54.73h-29.61v75.56h29.61c25.24,0,37.51-13.03,37.51-39.84,0-24.04-12.27-35.72-37.51-35.72ZM216.07,90.46c0,18.29-7.87,27.56-23.39,27.56h-15.48v-51h15.48c15.74,0,23.39,7.67,23.39,23.44Z"/>
        <path class="cls-1" d="M281.14,90.75c9.31-3.75,13.83-9.76,13.83-18.38,0-11.7-7.26-17.64-21.59-17.64h-35.41v75.56h34.3c15.69,0,23.65-7.53,23.65-22.38,0-9.48-4.97-15.25-14.78-17.16ZM252.1,67.01h20.39c5.13,0,7.73,2.1,7.73,6.25,0,7.52-5.58,12.35-16.59,14.35l-.82.15v9.15h4.29c9.28,0,13.8,3.82,13.8,11.69,0,6.25-3.1,9.42-9.21,9.42h-19.59v-51Z"/>
        <path class="cls-1" d="M360.87,85.84h-11.81c-6.04,0-9.1-2.81-9.1-8.36,0-7.3,6.36-11,18.91-11,7.93,0,15.58,1.27,22.75,3.77l1.32.46v-12.8l-.7-.22c-7.34-2.32-15.21-3.49-23.38-3.49-22.23,0-33.03,7.61-33.03,23.28,0,14.05,7.81,21.17,23.22,21.17h11.81c7.02,0,10.58,2.81,10.58,8.36,0,7.76-5.65,11.53-17.27,11.53-8.96,0-17.17-1.27-24.38-3.78l-1.32-.46v12.81l.7.22c7.38,2.32,15.79,3.49,25.01,3.49,21.13,0,31.4-7.79,31.4-23.81,0-14.05-8.31-21.17-24.7-21.17Z"/>
        <path class="cls-1" d="M418.24,114.49l-13.92-39.71h-14.98l21.23,55.76c-2.64,5.72-6.83,10-12.46,12.72l-1.06.51,6.83,9.66.76-.38c8.58-4.29,14.94-11.4,18.89-21.16l23.03-57.11h-14.72l-13.6,39.71Z"/>
        <path class="cls-1" d="M478.89,96.66h-8.97c-4.38,0-6.52-1.79-6.52-5.46s3.79-5.72,11.26-5.72c6.68,0,13,1.08,18.78,3.21l1.34.49v-11.75l-.68-.23c-5.95-1.96-12.36-2.96-19.06-2.96-16.62,0-24.7,5.72-24.7,17.48,0,11.07,5.7,16.69,16.95,16.69h10.02c4.03,0,5.99,1.79,5.99,5.46s-3.01,5.73-8.94,5.73c-7.47,0-14.21-1.08-20.04-3.22l-1.34-.49v11.75l.68.22c5.97,1.96,12.76,2.96,20.17,2.96,15.66,0,23.59-5.88,23.59-17.48s-6.23-16.69-18.53-16.69Z"/>
        <path class="cls-1" d="M516.71,65.81h-10.47v49.49c0,9.95,4.71,15,13.99,15h12.52v-11.22h-5.77c-4.39,0-6.62-2.58-6.62-7.68v-25.4h12.39v-11.22h-13.94l-2.11-8.96Z"/>
        <path class="cls-1" d="M565.53,74.77c-17.55,0-26.07,8.87-26.07,27.13s9.87,28.39,30.19,28.39c6.62,0,12.37-.48,17.1-1.43l.8-.16v-11.23l-1.17.21c-5.2.92-10.48,1.39-15.68,1.39-11.48,0-17.08-3.78-17.12-11.56h36.76l.1-.87c.25-2.02.37-4.06.37-6.06,0-17.37-8.27-25.81-25.28-25.81ZM553.59,97.66c.65-7.92,4.56-11.77,11.94-11.77s11.53,3.84,11.53,11.42v.35h-23.47Z"/>
        <path class="cls-1" d="M663.62,74.77c-6.15,0-12.12,2.54-17.75,7.55-2.61-5.08-7.29-7.55-14.31-7.55s-12.9,2.67-17.83,7.93l-1.62-7.93h-10.95v55.52h14.12v-38.54c3.59-3.68,7.45-5.55,11.48-5.55,5.06,0,7.62,3.13,7.62,9.31v34.77h14.12v-38.54c3.79-3.68,7.8-5.54,11.9-5.54,5.48,0,8.26,3.08,8.26,9.15v34.93h14.13v-34.4c0-14.01-6.45-21.12-19.16-21.12Z"/>
      </g>
    </g>
  </g>
</svg>